<svg width="23" height="30" viewBox="0 0 23 30" fill="none" xmlns="http://www.w3.org/2000/svg">
<path d="M3.75 5.5C4.17969 5.5 4.57031 5.85156 4.64844 6.28125L4.72656 6.75H21.1328C21.9531 6.75 22.5781 7.57031 22.3438 8.35156L20.2344 15.8516C20.0781 16.3984 19.6094 16.75 19.0234 16.75H6.64062L6.99219 18.625H19.0625C19.5703 18.625 20 19.0547 20 19.5625C20 20.1094 19.5703 20.5 19.0625 20.5H6.21094C5.78125 20.5 5.39062 20.1875 5.3125 19.7578L2.96875 7.375H0.9375C0.390625 7.375 0 6.98438 0 6.4375C0 5.92969 0.390625 5.5 0.9375 5.5H3.75ZM5 23.625C5 22.6094 5.82031 21.75 6.875 21.75C7.89062 21.75 8.75 22.6094 8.75 23.625C8.75 24.6797 7.89062 25.5 6.875 25.5C5.82031 25.5 5 24.6797 5 23.625ZM20 23.625C20 24.6797 19.1406 25.5 18.125 25.5C17.0703 25.5 16.25 24.6797 16.25 23.625C16.25 22.6094 17.0703 21.75 18.125 21.75C19.1406 21.75 20 22.6094 20 23.625Z" fill="white"/>
</svg>
