<svg width="18" height="30" viewBox="0 0 18 30" fill="none" xmlns="http://www.w3.org/2000/svg">
<path d="M10.625 17.375C14.4141 17.375 17.5 20.4609 17.5 24.25C17.5 24.9531 16.9141 25.5 16.25 25.5H1.25C0.546875 25.5 0 24.9531 0 24.25C0 20.4609 3.04688 17.375 6.875 17.375H10.625ZM1.875 23.625H15.5859C15.2734 21.1641 13.1641 19.25 10.625 19.25H6.875C4.29688 19.25 2.1875 21.1641 1.875 23.625ZM8.75 15.5C5.97656 15.5 3.75 13.2734 3.75 10.5C3.75 7.76562 5.97656 5.5 8.75 5.5C11.4844 5.5 13.75 7.76562 13.75 10.5C13.75 13.2734 11.4844 15.5 8.75 15.5ZM8.75 7.375C6.99219 7.375 5.625 8.78125 5.625 10.5C5.625 12.2578 6.99219 13.625 8.75 13.625C10.4688 13.625 11.875 12.2578 11.875 10.5C11.875 8.78125 10.4688 7.375 8.75 7.375Z" fill="white"/>
</svg>
