<svg width="21" height="30" viewBox="0 0 21 30" fill="none" xmlns="http://www.w3.org/2000/svg">
<path d="M20.1562 22.8438C20.7422 23.4688 20.7422 24.4453 20.1562 25.0703C19.5312 25.6562 18.5547 25.6562 17.9297 25.0703L13.2812 20.3828C11.6797 21.4375 9.72656 21.9844 7.61719 21.7109C4.02344 21.2031 1.13281 18.2734 0.664062 14.7188C0 9.40625 4.49219 4.91406 9.80469 5.57812C13.3594 6.04688 16.2891 8.9375 16.7969 12.5312C17.0703 14.6406 16.5234 16.5938 15.4688 18.1562L20.1562 22.8438ZM3.71094 13.625C3.71094 16.3984 5.9375 18.625 8.71094 18.625C11.4453 18.625 13.7109 16.3984 13.7109 13.625C13.7109 10.8906 11.4453 8.625 8.71094 8.625C5.9375 8.625 3.71094 10.8906 3.71094 13.625Z" fill="white"/>
</svg>
